<svg xmlns="http://www.w3.org/2000/svg" viewBox="0 0 800 600" fill="currentColor">
  <path d="M67 113c-4.5-3.2-7.8-8.1-9.3-13.8-1.5-5.7-.9-11.8 1.8-17l5.4-10.8c2.7-5.4 7.3-9.5 12.8-11.5s11.5-1.6 16.9.9l440 203.5c5.4 2.5 9.5 7.1 11.5 12.6s1.6 11.5-.9 16.9l-5.4 10.8c-2.5 5.4-7.1 9.5-12.6 11.5s-11.5 1.6-16.9-.9L67 113z"/>
  <path d="M130 187c-27.2 12.6-45.6 38.8-49.5 68.4l-31.5 240c-3.9 29.6 11.4 58.7 40 76l305 184.5c28.6 17.3 64.8 17.3 93.4 0l305-184.5c28.6-17.3 43.9-46.4 40-76l-31.5-240c-3.9-29.6-22.3-55.8-49.5-68.4L405 67c-27.2-12.6-58.8-12.6-86 0L130 187z"/>
  <path d="M231 243c-13.6 6.3-22.8 19.4-24.8 34.2l-15.8 120c-2 14.8 5.7 29.4 20 38l152.5 92.3c14.3 8.6 32.4 8.6 46.7 0L562 435.2c14.3-8.6 22-23.2 20-38l-15.8-120c-2-14.8-11.2-27.9-24.8-34.2L404 156.5c-13.6-6.3-29.4-6.3-43 0L231 243z"/>
  <path d="M364 200v235l33-20V215l-33-15z"/>
  <path d="M403 215v220l33 20V200l-33 15z"/>
</svg>
